<svg
	xmlns="http://www.w3.org/2000/svg"
	width="958"
	height="100"
	fill="none"
	viewBox="0 15 958 60"
	aria-hidden="true"
>
	<path
		fill="#ffb800"
		d="M15.703 97.09q-3.047 0-5.8-1.465-2.696-1.406-4.923-4.043Q0 85.547 0 77.109q0-3.456 2.695-6.914 2.755-3.515 8.965-6.328 13.945-6.27 40.723-6.27l49.043-38.027q2.46-1.934 2.929-2.343.762-.82 1.934-.82 1.23 0 2.344.234 1.172.233 2.109.644 2.05.88 2.051 2.05 0 .821-.41 1.29L78.867 57.422h14.297q.937-2.11 3.105-5.86l5.391-8.789a290 290 0 0 1 6.211-9.492l5.918-8.203q9.082-12.129 13.125-12.129.41 0 3.164 1.114 2.813 1.054 4.746 2.109 4.688 2.46 4.688 4.629 0 2.05-1.817 4.336-1.817 2.226-3.867 5.273a242 242 0 0 0-4.336 6.914 210 210 0 0 0-4.629 8.145 140 140 0 0 0-4.218 8.32q-4.278 9.2-4.278 12.48 0 3.224.469 4.688.528 1.466 1.23 2.168 1.114 1.113 3.575 1.113 2.46 0 4.98-.879a34 34 0 0 0 4.981-2.285 76 76 0 0 0 4.804-2.988 116 116 0 0 1 4.571-3.047q5.156-3.165 7.617-3.164 2.46 0 3.281 1.172.879 1.113.879 2.93 0 1.815-1.524 4.921-1.523 3.047-4.277 6.329-2.754 3.28-6.504 6.504a53.6 53.6 0 0 1-8.203 5.683q-10.02 5.567-19.629 5.567-8.672 0-15.293-6.094-7.383-6.739-7.383-17.403V70.43q0-.528.059-1.114l-24.55 3.106Q55.077 82.617 40.37 89.882 25.606 97.09 15.703 97.09"
	></path>
	<path
		fill="#ffb800"
		d="M147.012 73.828a4.8 4.8 0 0 1-2.168-.527q-1.113-.528-2.051-1.7-2.05-2.578-2.051-7.03 0-4.747 5.684-11.837a58.7 58.7 0 0 1 12.832-11.836q7.851-5.39 13.476-5.39 4.981 0 6.739 2.812l.82 1.29q.938 1.464 1.875 1.464t2.93-.176l8.32-.586q1.934-.175 3.047-.175t2.519.82a8.7 8.7 0 0 1 2.578 2.05q2.461 2.93 2.461 6.446 0 3.632-8.027 11.426l-3.867 3.867q-4.16 4.278-4.16 5.39 0 1.114 1.054 1.993 1.055.82 2.286.82 1.23 0 2.753-.644 1.582-.704 3.868-1.993a172 172 0 0 0 5.215-3.222q8.027-5.274 10.722-7.266l4.863-3.457q4.981-3.516 7.09-3.515t3.457.937q1.348.879 1.348 3.105t-2.285 5.977q-2.286 3.75-4.981 6.504a125 125 0 0 1-5.156 5.098q-2.52 2.343-5.976 5.097a124 124 0 0 1-7.559 5.508 74 74 0 0 1-8.789 4.98q-10.488 5.098-19.277 5.098-12.833 0-15.645-6.62-.879-1.993-.879-4.454t.938-5.273a34 34 0 0 1 2.461-5.684q3.046-5.565 7.207-9.844 3.515-3.69 3.515-4.394 0-1.113-1.289-1.407-1.23-.292-3.691-.292-1.054 0-4.512 3.046l-5.742 5.274q-9.14 8.32-11.953 8.32"
	></path>
	<path
		fill="#ffb800"
		d="M240.352 78.516q1.934-.82 5.39-2.579 21.153-10.839 23.203-11.953l2.461-1.347q3.809-2.46 3.516-3.867-.645-2.989-3.223-2.403a47 47 0 0 0-5.39 1.465 78 78 0 0 0-5.86 2.285q-6.504 2.696-11.426 5.39-17.226 9.903-20.742 12.012a159 159 0 0 0-4.511 11.31l-7.09 20.038q-3.34 9.316-6.739 12.598-1.816 1.816-4.043 1.816-5.507 0-8.671-3.867-3.165-3.808-3.165-9.726 0-5.86 1.524-11.602 1.524-5.684 4.219-11.543 5.45-11.835 14.59-22.09 5.565-14.94 18.515-29.004 7.91-8.554 14.707-12.07 3.398-1.758 5.801-1.758t3.633 1.113q1.23 1.055 1.23 2.696 0 1.581-.996 4.043-.996 2.46-2.695 5.508a102 102 0 0 1-3.985 6.503l-4.863 7.09q-.585.88-.586 1.582 0 1.114 1.348 1.114 1.524 0 5.625-1.934L261.504 45q12.305-5.565 23.555-5.566 5.86 0 11.015 5.566 5.215 5.625 5.215 12.07 0 9.96-8.144 15.352l-7.266 4.805a261 261 0 0 1-8.086 4.863l-8.438 4.629q-14.238 7.383-22.031 7.383-7.734 0-11.25-1.934t-3.515-5.45q0-4.745 7.793-8.202"
	></path>
	<path
		fill="#ffb800"
		d="M350.508 25.43a17.4 17.4 0 0 1-3.692 2.343q-1.992.88-4.453.88-2.46 0-4.746-.821-2.285-.82-3.984-2.285-3.692-3.165-3.692-8.086 0-7.56 12.657-11.25 4.277-1.29 7.031-1.29t4.101.645q1.407.586 2.286 1.582 1.757 1.993 1.757 4.102 0 2.05-.527 3.75-.468 1.7-1.406 3.516a26.6 26.6 0 0 1-2.285 3.632 20.3 20.3 0 0 1-3.047 3.282M335.742 89.94q-4.453 2.286-8.672 3.633-4.219 1.407-8.32 1.407-4.043 0-8.438-1.934a27.7 27.7 0 0 1-7.734-5.274q-7.558-7.323-7.558-16.289 0-8.26 4.921-16.757 4.512-7.676 11.485-12.891t12.949-5.215q8.554 0 9.141 4.805.175 1.465.175 3.398 0 1.935-.937 4.453-.879 2.462-2.344 4.98a52 52 0 0 1-3.164 4.864 93 93 0 0 1-3.281 4.277q-3.047 3.692-4.863 5.333 0 1.992 2.988 4.101 2.813 1.992 4.746 1.992 1.992 0 4.629-.937 2.696-.938 5.508-2.52a64 64 0 0 0 5.8-3.633 159 159 0 0 0 5.86-4.218l10.722-8.38q6.387-4.628 10.372-4.628 1.581 0 2.402 1.172.879 1.112.879 2.636 0 1.523-1.524 4.22-1.523 2.636-4.218 5.858-2.637 3.223-6.211 6.739a113 113 0 0 1-7.735 6.914 132 132 0 0 1-8.672 6.504 90 90 0 0 1-8.906 5.39"
	></path>
	<path
		fill="#ffb800"
		d="M424.219 53.027q5.742 0 5.742 3.985 0 3.808-5.391 9.844l-2.871 2.988q-5.214 5.331-12.187 10.488-6.915 5.156-12.188 8.145-12.246 6.796-22.207 6.796-9.374 0-15.293-5.625-5.097-4.863-5.097-10.254t1.054-10.722a85 85 0 0 1 2.754-10.43q3.399-10.371 7.442-17.636 1.054-1.993 1.054-2.579h-7.558q-4.278 0-6.621-1.992t-2.344-4.512.937-3.691a5.36 5.36 0 0 1 2.344-1.7q1.992-.82 5.859-.82l14.356.06q.468-.177 1.875-2.52l3.574-6.153q2.286-4.101 4.57-6.035 2.344-1.934 5.45-1.934 3.164 0 5.273.586 2.168.587 3.633 1.465 2.871 1.875 2.871 4.102 0 .938-.645 2.52l-3.281 7.968 27.832-.058q3.633 0 3.633 3.75 0 8.906-15.879 8.906l-21.445.058q-.703.352-2.403 3.399l-2.636 4.863q-.996 1.816-1.406 2.754l-1.29 2.871q-3.925 8.847-3.925 12.773t2.05 6.563q2.11 2.637 5.567 2.637t6.738-1.348a44 44 0 0 0 6.504-3.281q5.742-3.575 9.024-6.621 3.28-3.048 5.449-4.63l4.101-2.87q3.165-2.11 4.981-2.11M459.785 45.703a71 71 0 0 1-1.64 4.219q-.703 1.7-1.993 2.695-1.23.938-3.34.938-2.05 0-3.691-1.934-.82-1.524-.82-5.977t.176-7.675q.176-3.282.468-6.621.352-3.34.821-6.621a94 94 0 0 1 1.172-6.094q1.406-6.21 2.929-7.91 2.754-3.165 7.559-3.164 4.921 0 7.617 3.34a6.2 6.2 0 0 1 1.289 2.578q.41 1.464-.176 3.632-.585 2.169-1.64 4.864l-2.344 5.8q-1.29 3.105-2.402 6.329zM516.27 36.094q.585 1.172.585 3.105 0 1.875-1.933 4.278 1.524 1.582 3.867 3.691a50 50 0 0 1 4.629 4.512q5.391 6.034 5.391 11.543 0 3.632-4.981 8.847a27.6 27.6 0 0 1-3.34 3.047q6.094-2.344 14.649-9.316l6.855-5.625q5.977-4.98 7.969-5.742 2.051-.762 3.691-.762 1.641 0 3.164.82 1.582.82 1.582 2.696 0 1.816-.586 3.574a19.4 19.4 0 0 1-1.406 3.164q-1.172 2.109-3.398 4.336a276 276 0 0 1-11.953 10.664q-5.742 4.805-11.895 8.261-13.008 7.266-28.828 7.266-8.848 0-15.352-4.512-2.694-1.875-4.16-3.867-1.406-2.05-1.406-3.164 0-1.172.762-2.402.762-1.29 2.051-2.637a33 33 0 0 1 2.929-2.695 32 32 0 0 1 3.457-2.403q4.102-2.402 6.094-2.402 2.05 0 3.105.527 1.055.47 1.934 1.055 2.402 1.64 3.399 1.64 2.402 0 2.402-3.28 0-3.047-3.223-7.325a75 75 0 0 0-2.695-3.457q-1.407-1.7-2.344-3.34-1.875 2.169-4.687 4.453l-5.684 4.805q-5.918 5.098-10.957 4.864-2.93-.236-2.93-6.504 0-1.114.176-2.168.293-1.816 3.574-4.395 3.282-2.578 4.746-3.516a69 69 0 0 0 2.579-1.757l6.21-4.22q0-5.975 6.915-10.956 6.563-4.688 13.007-4.688 4.102 0 6.036 3.985M613.125 91.23q-2.226-2.109-3.34-4.746-1.113-2.695-1.113-4.628 0-1.993 1.055-4.688t2.871-6.211a166 166 0 0 1 4.218-7.734 183 183 0 0 1 5.157-8.496l5.507-8.496a185 185 0 0 1 5.625-7.735q-11.718 3.75-17.402 7.324-5.625 3.516-8.672 5.157-3.047 1.64-5.039 1.64-3.28 0-3.281-4.101 0-5.86 6.094-14.414 6.327-8.848 13.066-10.957 6.796-2.11 15.117-3.985a246 246 0 0 1 17.403-3.34q19.57-3.046 36.386-3.047 19.219 0 24.551 3.633 4.746 3.223 6.445 8.907.82 2.753.821 5.918 0 3.164-3.106 6.62-3.047 3.4-8.144 6.446-9.61 5.86-25.196 10.547 8.848 1.7 12.247 3.925 3.456 2.168 4.863 4.395 1.406 2.167 1.406 5.567 0 3.339-2.93 6.913t-8.144 6.68q-5.157 3.105-12.246 5.625-7.031 2.52-15.293 4.278-17.227 3.75-35.86 3.75-8.085 0-13.066-4.746m32.637-44.003q-8.79 15.234-8.789 21.093 0 2.696 2.812 5.04 2.637 2.226 5.508 2.226t6.328-.234q3.457-.294 7.09-.762a137 137 0 0 0 7.148-1.113q3.516-.645 6.27-1.465 6.094-1.817 6.094-3.692 0-3.397-9.434-5.625-7.676-1.758-14.648-1.758-2.695 0-3.868-1.054-1.171-1.113-1.171-2.52 0-1.464 1.406-2.988 1.464-1.582 3.926-2.578 19.922-4.98 33.281-11.191 6.562-3.048 6.562-4.63 0-2.285-1.347-3.69-2.403-2.52-5.332-2.52-2.93 0-6.68.234a180 180 0 0 0-8.086.703 219 219 0 0 0-18.926 2.695q-1.347 2.755-3.574 6.211zM787.676 51.797q3.75 0 3.75 3.105 0 3.81-4.571 9.082-7.558 8.79-17.812 17.11-16.7 13.36-29.824 13.36-9.434 0-15.469-8.204-6.27-8.555-6.27-22.969 0-18.925 18.458-41.836 11.718-14.59 22.089-19.804Q761.25 0 762.949 0q1.758 0 3.164.586 1.465.528 2.696 1.523 2.871 2.403 2.871 5.801t-1.875 8.086q-1.875 4.63-5.45 9.902-7.558 11.192-20.449 21.446-3.34 6.387-3.34 15.351 0 4.044 2.579 7.618 2.636 3.573 5.8 3.574 4.336 0 16.582-8.965l10.43-8.027q6.387-5.098 11.719-5.098"
	></path>
	<path
		fill="#ffb800"
		d="M840.41 57.07q0 3.165 5.391 3.164 3.985 0 10.429-3.867l4.688-2.578q2.167-1.23 3.75-1.23 1.64 0 2.578.996t.938 2.754-1.172 4.101q-1.173 2.286-3.223 4.863-2.05 2.52-4.805 5.04a44 44 0 0 1-5.918 4.453Q846.035 79.16 840 79.16q-6.387 0-10.195-2.168a45 45 0 0 1-2.285-1.465q-6.27 7.149-18.165 13.125-12.656 6.33-22.089 6.329-9.903 0-15.645-7.793-4.629-6.33-4.629-12.832 0-9.376 10.02-17.872 7.383-6.21 14.238-9.433 6.914-3.224 12.48-4.98 11.778-3.692 21.211-3.692 4.22 0 7.5 1.64 3.34 1.583 4.922 3.223 3.75 3.692 3.75 9.434 0 1.699-.351 2.636-.352.938-.352 1.758m-47.93 11.074-.058.176v.059q0 2.52 1.113 3.281 2.696 1.64 5.684.88a42 42 0 0 0 5.683-1.993q6.68-2.871 12.071-7.266-.938-1.875-.938-3.867 0-4.218 3.692-8.437-4.687 0-12.657 4.394-8.789 4.863-13.183 10.02-1.407 1.758-1.407 2.753"
	></path>
	<path
		fill="#ffb800"
		d="M891.562 54.14a73 73 0 0 0-7.5 4.63q-3.573 2.52-6.328 5.156-2.754 2.637-2.754 4.57 0 1.935 3.106 1.934 2.168 0 6.328-2.11l12.715-6.738q3.516-1.816 6.269-4.277l4.161-3.633q4.452-4.043 9.316-4.043 2.52 0 5.039 2.812 2.52 2.813 2.52 5.743 0 6.737-5.508 19.922l9.375-7.676 19.336-15.059q3.105-2.343 5.156-2.344 4.453 0 4.453 4.278 0 4.395-5.742 11.308-2.695 3.282-7.5 7.09l-32.461 24.609q-3.223 2.578-5.098 4.278-7.734 12.48-14.883 18.105-10.371 8.203-19.218 8.203-3.984 0-6.504-2.226-2.286-1.934-2.285-4.512 0-2.402 1.289-5.215 1.288-2.754 3.457-5.566a58 58 0 0 1 4.922-5.567 86 86 0 0 1 5.859-5.332q8.204-6.504 11.66-8.964l5.742-4.16q3.399-7.207 5.86-15.586-11.309 9.96-24.082 15.644-6.387 2.871-10.606 2.871-4.218 0-7.734-1.758-3.516-1.757-6.035-4.629-5.215-6.034-5.215-14.004 0-8.32 6.269-14.003 9.434-8.555 26.719-14.883 16.64-6.153 28.184-6.153 3.808 0 3.808 3.75 0 2.579-.996 3.985-.937 1.347-4.629 2.637-3.633 1.289-8.086 3.046a87 87 0 0 0-8.379 3.868"
	></path>
</svg>
